<svg xmlns="http://www.w3.org/2000/svg" width="15" height="15" fill="currentColor" viewBox="0 0 15 15">
    <path fill-rule="evenodd" d="M5 2c0-.55228.44772-1 1-1h3c.55228 0 1 .44772 1 1v1h4c.5523 0 1 .44772 1 1v3c0 .8888-.3869 1.68734-1 2.23608V12.5c0 .8284-.6716 1.5-1.5 1.5h-10c-.82843 0-1.5-.6716-1.5-1.5V9.2359C.38697 8.68721 0 7.88883 0 7V4c0-.55228.44772-1 1-1h4V2Zm4 0v1H6V2h3ZM1 4h13v3c0 .654-.3134 1.23467-.8003 1.6004C12.8655 8.85144 12.4508 9 12 9H8v-.5c0-.27614-.22386-.5-.5-.5s-.5.22386-.5.5V9H3c-.4507 0-.8654-.14867-1.19971-.39978C1.31335 8.23446 1 7.65396 1 7V4Zm6 6H3c-.35039 0-.68708-.06028-1-.17095V12.5c0 .2761.22386.5.5.5h10c.2761 0 .5-.2239.5-.5V9.82915C12.6871 9.93978 12.3504 10 12 10H8v.5c0 .2761-.22386.5-.5.5s-.5-.2239-.5-.5V10Z" clip-rule="evenodd"/>
</svg>