<svg xmlns="http://www.w3.org/2000/svg" width="15" height="15" fill="none" viewBox="0 0 15 15">
    <path fill="currentColor" fill-rule="evenodd" d="M8 .5c0-.27614-.22386-.5-.5-.5S7 .22386 7 .5v3c0 .27614.22386.5.5.5s.5-.22386.5-.5v-3Zm0 11c0-.2761-.22386-.5-.5-.5s-.5.2239-.5.5v3c0 .2761.22386.5.5.5s.5-.2239.5-.5v-3Zm-6.99519-.25c-.13807-.2391-.05613-.5449.18301-.683L3.7859 9.06699c.23915-.13807.54494-.05614.68301.18301.13807.23915.05614.54494-.18301.68301L1.68782 11.433c-.23914.1381-.54494.0561-.68301-.183Zm12.30739.183c.2391.1381.5449.0561.683-.183.1381-.2391.0561-.5449-.183-.683l-2.5981-1.50001c-.2391-.13807-.5449-.05614-.683.18301s-.0561.54494.183.68301l2.5981 1.49999ZM1.00481 3.75c.13807-.23915.44387-.32108.68301-.18301l2.59808 1.5c.23915.13807.32108.44386.18301.68301-.13807.23915-.44386.32108-.68301.18301l-2.59808-1.5C.94868 4.29494.86674 3.98915 1.00481 3.75Zm12.80739.68301c.2391-.13807.3211-.44386.183-.68301-.1381-.23915-.4439-.32108-.683-.18301l-2.5981 1.5c-.2391.13807-.3211.44386-.183.68301.1381.23915.4439.32108.683.18301l2.5981-1.5Z" clip-rule="evenodd"/>
</svg>