<svg xmlns="http://www.w3.org/2000/svg" width="15" height="15" fill="currentColor" viewBox="0 0.5 15 15">
    <path fill-rule="evenodd" d="M7.24326 1.94564a.49996.49996 0 0 1 .50872 0L14.752 6.082a.50004.50004 0 0 1 0 .86093L12 8.5691v2.4289l.2057.205a.99988.99988 0 0 1 .2943.7085v1.0761h-.0003A.25653.25653 0 0 1 12.5 13c0 .2761-.4477.5-1 .5s-1-.2239-1-.5l.0001-.0085.0002-.0039H10.5v-1.0761c0-.2659.1059-.5209.2943-.7085L11 10.998V9.16001L7.75198 11.0793a.50006.50006 0 0 1-.50872 0L4 9.16282V11H3V8.57191L.24325 6.94293a.50001.50001 0 0 1 0-.86093l7.00001-4.13636Zm3.71584 6.07698-3.20705-1.8951c-.23774-.14048-.54435-.06164-.68483.1761-.14048.23774-.06164.54435.1761.68483l2.73297 1.61494-2.47867 1.46471-6.01716-3.55564 6.01716-3.55559 6.01718 3.55559-2.5557 1.51016ZM9.50002 12.2098v1.0415C8.89398 13.412 8.21301 13.5 7.5 13.5c-1.16536 0-2.24512-.2351-3.05203-.6386C3.67096 12.4729 3 11.8437 3 11h1c0 .2609.22447.6317.89518.967.6408.3204 1.56104.533 2.60482.533.74965 0 1.43557-.1097 2.00002-.2902Z" clip-rule="evenodd"/>
</svg>