<svg xmlns="http://www.w3.org/2000/svg" width="15" height="15" fill="currentColor" viewBox="0 0 15 15" style="transform: translate(1px, -1px)">
    <path fill-rule="evenodd" d="M3.50239 2.49761C3.50239 1.11822 4.62061 0 6 0s2.49761 1.11822 2.49761 2.49761c0 .1719-.01744.33995-.05065.50239H11c.5523 0 1 .44772 1 1v2.54833a2.51067 2.51067 0 0 1 .4985-.04978C13.8801 6.49855 15 7.61849 15 9c0 1.3815-1.1199 2.5015-2.5015 2.5015A2.5144 2.5144 0 0 1 12 11.4517V14c0 .5523-.4477 1-1 1H8c-.27614 0-.5-.2239-.5-.5 0-.8284-.67157-1.5-1.5-1.5s-1.5.6716-1.5 1.5c0 .2761-.22386.5-.5.5H1c-.55229 0-1-.4477-1-1v-3c0-.2761.22386-.5.5-.5.82843 0 1.5-.67157 1.5-1.5S1.32843 7.5.5 7.5C.22386 7.5 0 7.27614 0 7V4c0-.55228.44771-1 1-1h2.55304a2.50569 2.50569 0 0 1-.05065-.50239ZM6 1c-.82711 0-1.49761.6705-1.49761 1.49761 0 .27472.07351.53075.20161.75113A.5.5 0 0 1 4.27172 4H1v2.55001C2.14112 6.78164 3 7.79052 3 9c0 1.2095-.85888 2.2184-2 2.45V14h2.55001C3.78164 12.8589 4.79052 12 6 12s2.21836.8589 2.44999 2H11v-3.265c0-.1786.0953-.3437.2499-.433a.50014.50014 0 0 1 .4999-.0002c.22.1269.4751.1997.7487.1997C13.3278 10.5015 14 9.82923 14 9s-.6722-1.50145-1.5015-1.50145c-.2736 0-.5287.07274-.7487.19961A.49997.49997 0 0 1 11 7.26505V4H7.72828a.5.5 0 0 1-.43228-.75126c.1281-.22038.20161-.47641.20161-.75113C7.49761 1.6705 6.82711 1 6 1Z" clip-rule="evenodd"/>
</svg>